<svg viewBox="0 0 31 31" fill="none" xmlns="http://www.w3.org/2000/svg">
          <path d="M29.8852 13C30.0885 11.6369 30.0218 10.2411 29.6855 8.89931C29.2408 7.12644 28.3252 5.44749 26.939 4.06078C25.5527 2.67452 23.8738 1.75927 22.101 1.31458C20.7593 0.978341 19.3635 0.911647 18 1.11448" stroke="#BEC8C3" stroke-width="1.70667" stroke-miterlimit="10" stroke-linecap="round" stroke-linejoin="round"></path>
          <path d="M22.9521 12C23.1488 10.4177 22.7395 8.74843 21.7248 7.53039C20.7096 6.31284 19.3183 5.82178 18 6.05723" stroke="#BEC8C3" stroke-width="1.70667" stroke-miterlimit="10" stroke-linecap="round" stroke-linejoin="round"></path>
          <path d="M8.07217 4C8.64978 4 9.18206 4.31326 9.46256 4.81817L11.4077 8.32242C11.6626 8.78109 11.6743 9.33582 11.44 9.80527L9.56579 13.5532C9.56579 13.5532 10.1088 16.3457 12.3816 18.6184C14.6548 20.8912 17.4374 21.4248 17.4374 21.4248L21.1849 19.551C21.6543 19.3163 22.2095 19.3284 22.6686 19.5838L26.1827 21.5374C26.6872 21.8179 27 22.3498 27 22.9274V26.9612C27 29.0158 25.0921 30.4996 23.1452 29.8425C19.1473 28.4939 12.9417 25.9254 9.00838 21.9916C5.07506 18.0583 2.50611 11.8527 1.15746 7.85477C0.500411 5.90786 1.98415 4 4.03878 4H8.07217Z" stroke="#BEC8C3" stroke-width="1.70667" stroke-miterlimit="10" stroke-linejoin="round"></path>
        </svg>
