<svg viewBox="0 0 38 38" fill="none" xmlns="http://www.w3.org/2000/svg">
          <path d="M7.6862 26C4.79086 26.8482 3 28.0199 3 29.3138C3 31.902 10.1634 34 18.9998 34C27.8366 34 35 31.902 35 29.3138C35 28.0199 33.2092 26.8482 30.3138 26" stroke="#BEC8C3" stroke-width="1.70667" stroke-miterlimit="10" stroke-linecap="round" stroke-linejoin="round"></path>
          <path d="M19.5 28C19.5 28 30 21.1485 30 13.2272C30 7.57875 25.2989 3 19.5 3C13.7011 3 9 7.57875 9 13.2272C9 21.1485 19.5 28 19.5 28Z" stroke="#BEC8C3" stroke-width="1.70667" stroke-miterlimit="10" stroke-linejoin="round"></path>
          <path d="M18.9998 17C21.2092 17 23 15.2092 23 13.0002C23 10.7913 21.2092 9 18.9998 9C16.7908 9 15 10.7913 15 13.0002C15 15.2092 16.7908 17 18.9998 17Z" stroke="#BEC8C3" stroke-width="1.70667" stroke-miterlimit="10" stroke-linejoin="round"></path>
        </svg>
