<svg width="39" height="56" viewBox="0 0 39 56" fill="none" xmlns="http://www.w3.org/2000/svg" style="padding-bottom:5px">
                <path d="M25.4092 0.930514C23.552 0.338369 21.526 0 19.4579 0C13.5066 0 8.14617 2.70695 4.5585 6.97885L13.7598 14.719L25.4092 0.930514Z" fill="#1A73E8"></path>
                <path d="M4.55844 6.97886C1.73052 10.3625 0 14.7613 0 19.4985C0 23.1783 0.717533 26.139 1.94156 28.8036L13.7597 14.719L4.55844 6.97886Z" fill="#EA4335"></path>
                <path d="M19.5 12.0544C23.6364 12.0544 26.9708 15.3958 26.9708 19.5408C26.9708 21.3595 26.2955 23.0513 25.1981 24.3625C25.1981 24.3625 31.065 17.3414 36.8052 10.5317C34.4416 5.96374 30.3474 2.49546 25.4091 0.930504L13.7598 14.719C15.1526 13.1118 17.1786 12.0544 19.5 12.0544Z" fill="#4285F4"></path>
                <path d="M19.5 26.9849C15.3637 26.9849 12.0293 23.6435 12.0293 19.4985C12.0293 17.6798 12.6624 15.9879 13.7598 14.719L1.94159 28.8036C3.96756 33.287 7.34419 36.9245 10.8052 41.4502L25.1981 24.3202C23.8052 25.9698 21.7793 26.9849 19.5 26.9849Z" fill="#FBBC04"></path>
                <path d="M24.9448 46.1873C31.4449 35.994 39 31.3837 39 19.5408C39 16.284 38.1981 13.2387 36.8052 10.5317L10.8052 41.4502C11.9026 42.8882 13.0423 44.5378 14.1397 46.2296C18.1072 52.3626 17.0098 56 19.5423 56C22.0747 56 20.9773 52.3203 24.9448 46.1873Z" fill="#34A853"></path>
            </svg>
