<svg viewBox="0 0 34 34" fill="none" xmlns="http://www.w3.org/2000/svg">
          <path fill-rule="evenodd" clip-rule="evenodd" d="M17.002 10.4425C19.1352 10.4425 19.3911 10.4505 20.2351 10.4878C20.7419 10.4936 21.2439 10.5869 21.7189 10.7637C22.0669 10.8912 22.3814 11.0958 22.6389 11.3623C22.9045 11.62 23.109 11.9338 23.2375 12.2808C23.4135 12.7574 23.5068 13.2606 23.5135 13.7686C23.5521 14.6111 23.5588 14.863 23.5588 16.9987C23.5588 19.1343 23.5521 19.3889 23.5135 20.2314C23.5068 20.7394 23.4135 21.2426 23.2375 21.7192C23.1091 22.0663 22.9045 22.3801 22.6389 22.6377C22.3805 22.9027 22.0662 23.1067 21.7189 23.2349C21.2441 23.4124 20.742 23.5059 20.2351 23.5109C19.3911 23.5496 19.1378 23.5575 17.002 23.5575C14.8662 23.5575 14.6129 23.5496 13.7676 23.5109C13.2608 23.5051 12.7588 23.4117 12.2837 23.2349C11.9368 23.106 11.6227 22.9021 11.3638 22.6377C11.0981 22.3801 10.8936 22.0663 10.7652 21.7192C10.5894 21.2426 10.4965 20.7394 10.4905 20.2314C10.4505 19.3889 10.4425 19.1356 10.4425 16.9987C10.4425 14.8617 10.4519 14.6098 10.4905 13.7686C10.4966 13.2606 10.5895 12.7574 10.7652 12.2808C10.8936 11.9337 11.0981 11.6199 11.3638 11.3623C11.6218 11.0965 11.9362 10.8919 12.2837 10.7637C12.759 10.5877 13.2608 10.4944 13.7676 10.4878C14.6129 10.4505 14.8662 10.4425 17.002 10.4425ZM17.002 9C14.8288 9 14.5569 9.00801 13.7036 9.04801C13.0393 9.06101 12.382 9.18677 11.7598 9.41993C11.2259 9.62136 10.7423 9.9366 10.3425 10.3438C9.93539 10.7427 9.6205 11.226 9.41997 11.7595C9.18671 12.3807 9.06135 13.0372 9.04933 13.7005C9.008 14.5537 9 14.8257 9 16.9987C9 19.1716 9.008 19.445 9.04933 20.2982C9.06137 20.9611 9.18673 21.6171 9.41997 22.2378C9.62104 22.7719 9.93584 23.2559 10.3425 23.6562C10.7426 24.0627 11.2261 24.3775 11.7598 24.5788C12.3824 24.8107 13.0394 24.9369 13.7036 24.952C14.5555 24.9893 14.8288 25 17.002 25C19.1752 25 19.4458 24.9893 20.3004 24.952C20.9638 24.9371 21.62 24.811 22.2416 24.5788C22.7756 24.3775 23.2596 24.0627 23.6601 23.6562C24.0661 23.2556 24.3805 22.7716 24.5814 22.2378C24.8137 21.6167 24.9399 20.9611 24.9547 20.2982C24.9933 19.4436 25 19.1703 25 16.9987C25 14.827 24.992 14.5537 24.9547 13.7005C24.9399 13.0372 24.8137 12.381 24.5814 11.7595C24.381 11.2262 24.0666 10.743 23.6601 10.3438C23.2599 9.93657 22.7758 9.62134 22.2416 9.41993C21.6203 9.18666 20.9639 9.0609 20.3004 9.04801C19.4458 9.00801 19.1738 9 17.002 9ZM17.0167 12.9047C16.4768 12.9045 15.9423 13.0107 15.4435 13.2171C14.9447 13.4236 14.4915 13.7264 14.1098 14.1081C13.7281 14.4898 13.4254 14.9429 13.2189 15.4416C13.0124 15.9404 12.9062 16.4749 12.9063 17.0147C12.9062 17.5545 13.0124 18.0889 13.2189 18.5877C13.4254 19.0864 13.7281 19.5396 14.1098 19.9213C14.4915 20.3029 14.9447 20.6057 15.4435 20.8121C15.9423 21.0186 16.4768 21.1248 17.0167 21.1247C17.5566 21.1248 18.0912 21.0186 18.59 20.8121C19.0889 20.6057 19.5421 20.303 19.924 19.9213C20.3058 19.5397 20.6087 19.0866 20.8153 18.5878C21.022 18.0891 21.1283 17.5545 21.1283 17.0147C21.1283 16.4748 21.022 15.9403 20.8153 15.4415C20.6087 14.9428 20.3058 14.4897 19.924 14.108C19.5421 13.7264 19.0889 13.4236 18.59 13.2171C18.0912 13.0107 17.5566 12.9045 17.0167 12.9047ZM17.0167 19.6822C16.3095 19.6822 15.6313 19.4013 15.1312 18.9013C14.6311 18.4013 14.3502 17.7231 14.3502 17.016C14.3502 16.3089 14.6311 15.6307 15.1312 15.1307C15.6313 14.6307 16.3095 14.3498 17.0167 14.3498C17.7239 14.3498 18.4021 14.6307 18.9021 15.1307C19.4022 15.6307 19.6831 16.3089 19.6831 17.016C19.6831 17.3661 19.6141 17.7128 19.4801 18.0363C19.3461 18.3598 19.1497 18.6538 18.9021 18.9013C18.6545 19.1489 18.3606 19.3453 18.0371 19.4793C17.7136 19.6133 17.3668 19.6822 17.0167 19.6822ZM22.2069 12.7128C22.2071 12.8379 22.1826 12.9617 22.1348 13.0774C22.0871 13.193 22.017 13.2981 21.9286 13.3866C21.8401 13.4752 21.7352 13.5454 21.6196 13.5933C21.504 13.6412 21.3801 13.6659 21.255 13.6659C21.1299 13.6659 21.006 13.6412 20.8904 13.5933C20.7748 13.5454 20.6698 13.4752 20.5814 13.3866C20.493 13.2981 20.4229 13.193 20.3751 13.0774C20.3274 12.9617 20.3029 12.8379 20.3031 12.7128C20.3031 12.4603 20.4033 12.2182 20.5819 12.0397C20.7604 11.8612 21.0025 11.7608 21.255 11.7608C21.5074 11.7608 21.7496 11.8612 21.9281 12.0397C22.1066 12.2182 22.2069 12.4603 22.2069 12.7128Z" fill="#BEC8C3"></path>
          <path d="M16.5 32C25.0604 32 32 25.0604 32 16.5C32 7.93959 25.0604 1 16.5 1C7.93959 1 1 7.93959 1 16.5C1 25.0604 7.93959 32 16.5 32Z" stroke="#BEC8C3" stroke-width="1.70667" stroke-miterlimit="10"></path>
        </svg>
