<svg viewBox="0 0 34 34" fill="none" xmlns="http://www.w3.org/2000/svg">
            <path fill-rule="evenodd" clip-rule="evenodd" d="M16.8885 21.9547C17.0694 21.9344 17.2404 21.8621 17.3805 21.7468C17.4784 21.6132 17.5298 21.4517 17.5269 21.2867C17.5269 21.2867 17.5071 19.8842 18.1773 19.6776C18.8474 19.4711 19.6837 21.0345 20.582 21.6384C20.922 21.9 21.3479 22.0271 21.7772 21.9951L24.1793 21.9612C24.1793 21.9612 25.4365 21.8854 24.8389 20.9246C24.3653 20.1572 23.761 19.477 23.0528 18.9142C21.5463 17.5548 21.7482 17.7744 23.5646 15.4215C24.6674 13.9836 25.1106 13.1144 24.9708 12.7392C24.831 12.3641 24.0276 12.4778 24.0276 12.4778L21.3234 12.4961C21.204 12.4815 21.0829 12.5019 20.9751 12.5549C20.8725 12.6276 20.7899 12.7247 20.7351 12.8373C20.4554 13.5449 20.1221 14.2305 19.7378 14.8882C18.5321 16.8777 18.0519 16.9796 17.8541 16.8607C17.395 16.5718 17.5111 15.7039 17.5111 15.0869C17.5111 13.1588 17.8132 12.3536 16.9267 12.1458C16.5129 12.049 16.0878 12.0081 15.663 12.0242C14.9079 11.9561 14.1467 12.032 13.4205 12.2478C13.1131 12.3942 12.8756 12.7197 13.0247 12.7406C13.3287 12.7688 13.611 12.9087 13.8162 13.1327C14.0013 13.5022 14.0919 13.9112 14.08 14.3235C14.08 14.3235 14.237 16.594 13.7067 16.875C13.3413 17.0685 12.8427 16.6751 11.7689 14.8699C11.4038 14.2428 11.0808 13.5926 10.802 12.9235C10.7522 12.8093 10.6758 12.7086 10.579 12.6294C10.4525 12.549 10.3114 12.4939 10.1635 12.4673L7.59383 12.4843C7.59383 12.4843 7.20864 12.4961 7.06617 12.6582C6.92371 12.8203 7.05563 13.1039 7.05563 13.1039C8.14592 15.5914 9.59105 17.9109 11.3468 19.9913C11.9178 20.6019 12.6075 21.0917 13.3743 21.4316C14.1412 21.7714 14.9695 21.9543 15.8094 21.9691L16.8885 21.9547Z" fill="#BEC8C3"></path>
            <path d="M16.5 32C25.0604 32 32 25.0604 32 16.5C32 7.93959 25.0604 1 16.5 1C7.93959 1 1 7.93959 1 16.5C1 25.0604 7.93959 32 16.5 32Z" stroke="#BEC8C3" stroke-width="1.70667" stroke-miterlimit="10"></path>
        </svg>
