<svg width="38" height="61" viewBox="0 0 38 61" fill="none" xmlns="http://www.w3.org/2000/svg">
                    <path fill-rule="evenodd" clip-rule="evenodd" d="M26.7049 24.8721L37.9334 19.7202C37.9334 28.7396 31.7459 38.0585 26.2565 46.9358L16.8466 61L20.9636 35.3213L26.7049 24.8721Z" fill="#E00000"></path>
                    <path d="M19 38.2594C29.4934 38.2594 38 29.6948 38 19.1297C38 8.56467 29.4934 0 19 0C8.50659 0 0 8.56467 0 19.1297C0 29.6948 8.50659 38.2594 19 38.2594Z" fill="#FF3333"></path>
                    <path d="M19.0001 26.7517C23.181 26.7517 26.5704 23.3392 26.5704 19.1297C26.5704 14.9202 23.181 11.5077 19.0001 11.5077C14.8191 11.5077 11.4297 14.9202 11.4297 19.1297C11.4297 23.3392 14.8191 26.7517 19.0001 26.7517Z" fill="#414347"></path>
                </svg>
